<svg width="1440" height="920" viewBox="0 0 1440 920" fill="none" xmlns="http://www.w3.org/2000/svg">
<g clip-path="url(#clip0_406_4156)">
<line x1="4.61469e-08" y1="0.5" x2="1440" y2="0.50003" stroke="#5271FF" stroke-opacity="0.2"/>
<line x1="4.61469e-08" y1="102.611" x2="1440" y2="102.611" stroke="#5271FF" stroke-opacity="0.2"/>
<line x1="4.61469e-08" y1="204.722" x2="1440" y2="204.722" stroke="#5271FF" stroke-opacity="0.2"/>
<line x1="4.61469e-08" y1="306.833" x2="1440" y2="306.833" stroke="#5271FF" stroke-opacity="0.2"/>
<line x1="4.61469e-08" y1="408.944" x2="1440" y2="408.944" stroke="#5271FF" stroke-opacity="0.2"/>
<line x1="4.61469e-08" y1="511.056" x2="1440" y2="511.056" stroke="#5271FF" stroke-opacity="0.2"/>
<line x1="4.61469e-08" y1="613.167" x2="1440" y2="613.167" stroke="#5271FF" stroke-opacity="0.2"/>
<line x1="4.61469e-08" y1="715.278" x2="1440" y2="715.278" stroke="#5271FF" stroke-opacity="0.2"/>
<line x1="4.61469e-08" y1="817.389" x2="1440" y2="817.389" stroke="#5271FF" stroke-opacity="0.2"/>
<line x1="4.19167e-08" y1="919.5" x2="1440" y2="919.5" stroke="#5271FF" stroke-opacity="0.2"/>
<line x1="108.5" y1="2.18557e-08" x2="108.5" y2="920" stroke="#5271FF" stroke-opacity="0.2"/>
<line x1="209.666" y1="2.18557e-08" x2="209.666" y2="920" stroke="#5271FF" stroke-opacity="0.2"/>
<line x1="310.834" y1="2.18557e-08" x2="310.834" y2="920" stroke="#5271FF" stroke-opacity="0.2"/>
<line x1="412" y1="2.18557e-08" x2="412" y2="920" stroke="#5271FF" stroke-opacity="0.2"/>
<line x1="513.166" y1="2.18557e-08" x2="513.166" y2="920" stroke="#5271FF" stroke-opacity="0.2"/>
<line x1="614.334" y1="2.18557e-08" x2="614.334" y2="920" stroke="#5271FF" stroke-opacity="0.2"/>
<line x1="715.5" y1="2.18557e-08" x2="715.5" y2="920" stroke="#5271FF" stroke-opacity="0.2"/>
<line x1="816.666" y1="2.18557e-08" x2="816.666" y2="920" stroke="#5271FF" stroke-opacity="0.2"/>
<line x1="917.834" y1="2.18557e-08" x2="917.834" y2="920" stroke="#5271FF" stroke-opacity="0.2"/>
<line x1="1019" y1="2.18557e-08" x2="1019" y2="920" stroke="#5271FF" stroke-opacity="0.2"/>
<line x1="1120.17" y1="2.18557e-08" x2="1120.17" y2="920" stroke="#5271FF" stroke-opacity="0.2"/>
<line x1="1221.33" y1="2.18557e-08" x2="1221.33" y2="920" stroke="#5271FF" stroke-opacity="0.2"/>
<line x1="1322.5" y1="2.18557e-08" x2="1322.5" y2="920" stroke="#5271FF" stroke-opacity="0.2"/>
</g>
<defs>
<clipPath id="clip0_406_4156">
<rect width="1440" height="920" fill="white"/>
</clipPath>
</defs>
</svg>
