<svg width="1440" height="480" viewBox="0 0 1440 480" fill="none" xmlns="http://www.w3.org/2000/svg">
<g clip-path="url(#clip0_58_1578)">
<g clip-path="url(#clip1_58_1578)">
<line x1="111.5" y1="-46" x2="111.5" y2="530" stroke="#5271FF" stroke-opacity="0.2"/>
<line x1="222.5" y1="-46" x2="222.5" y2="530" stroke="#5271FF" stroke-opacity="0.2"/>
<line x1="333.5" y1="-46" x2="333.5" y2="530" stroke="#5271FF" stroke-opacity="0.2"/>
<line x1="444.5" y1="-46" x2="444.5" y2="530" stroke="#5271FF" stroke-opacity="0.2"/>
<line x1="555.5" y1="-46" x2="555.5" y2="530" stroke="#5271FF" stroke-opacity="0.2"/>
<line x1="666.5" y1="-46" x2="666.5" y2="530" stroke="#5271FF" stroke-opacity="0.2"/>
<line x1="777.5" y1="-46" x2="777.5" y2="530" stroke="#5271FF" stroke-opacity="0.2"/>
<line x1="888.5" y1="-46" x2="888.5" y2="530" stroke="#5271FF" stroke-opacity="0.2"/>
<line x1="999.5" y1="-46" x2="999.5" y2="530" stroke="#5271FF" stroke-opacity="0.2"/>
<line x1="1110.5" y1="-46" x2="1110.5" y2="530" stroke="#5271FF" stroke-opacity="0.2"/>
<line x1="1221.5" y1="-46" x2="1221.5" y2="530" stroke="#5271FF" stroke-opacity="0.2"/>
<line x1="1332.5" y1="-46" x2="1332.5" y2="530" stroke="#5271FF" stroke-opacity="0.2"/>
</g>
<line x1="4.61469e-08" y1="0.5" x2="1440" y2="0.50003" stroke="#5271FF" stroke-opacity="0.2"/>
<line x1="4.61469e-08" y1="96.3" x2="1440" y2="96.3001" stroke="#5271FF" stroke-opacity="0.2"/>
<line x1="4.61469e-08" y1="192.1" x2="1440" y2="192.1" stroke="#5271FF" stroke-opacity="0.2"/>
<line x1="4.61469e-08" y1="287.9" x2="1440" y2="287.9" stroke="#5271FF" stroke-opacity="0.2"/>
<line x1="4.61469e-08" y1="383.7" x2="1440" y2="383.7" stroke="#5271FF" stroke-opacity="0.2"/>
<line x1="4.19167e-08" y1="479.5" x2="1440" y2="479.5" stroke="#5271FF" stroke-opacity="0.2"/>
</g>
<defs>
<clipPath id="clip0_58_1578">
<rect width="1440" height="480" fill="white"/>
</clipPath>
<clipPath id="clip1_58_1578">
<rect width="1440" height="480" fill="white" transform="translate(0 2)"/>
</clipPath>
</defs>
</svg>
