<svg width="1440" height="796" viewBox="0 0 1440 796" fill="none" xmlns="http://www.w3.org/2000/svg">
<g filter="url(#filter0_n_169_1924)">
<rect width="1440" height="796" fill="#EEF1FF"/>
</g>
<g clip-path="url(#clip0_169_1924)">
<g clip-path="url(#clip1_169_1924)">
<line x1="111.5" y1="-37" x2="111.5" y2="835" stroke="#5271FF" stroke-opacity="0.2"/>
<line x1="222.5" y1="-37" x2="222.5" y2="835" stroke="#5271FF" stroke-opacity="0.2"/>
<line x1="333.5" y1="-37" x2="333.5" y2="835" stroke="#5271FF" stroke-opacity="0.2"/>
<line x1="444.5" y1="-37" x2="444.5" y2="835" stroke="#5271FF" stroke-opacity="0.2"/>
<line x1="555.5" y1="-37" x2="555.5" y2="835" stroke="#5271FF" stroke-opacity="0.2"/>
<line x1="666.5" y1="-37" x2="666.5" y2="835" stroke="#5271FF" stroke-opacity="0.2"/>
<line x1="777.5" y1="-37" x2="777.5" y2="835" stroke="#5271FF" stroke-opacity="0.2"/>
<line x1="888.5" y1="-37" x2="888.5" y2="835" stroke="#5271FF" stroke-opacity="0.2"/>
<line x1="999.5" y1="-37" x2="999.5" y2="835" stroke="#5271FF" stroke-opacity="0.2"/>
<line x1="1110.5" y1="-37" x2="1110.5" y2="835" stroke="#5271FF" stroke-opacity="0.2"/>
<line x1="1221.5" y1="-37" x2="1221.5" y2="835" stroke="#5271FF" stroke-opacity="0.2"/>
<line x1="1332.5" y1="-37" x2="1332.5" y2="835" stroke="#5271FF" stroke-opacity="0.2"/>
</g>
<line x1="4.61469e-08" y1="0.5" x2="1440" y2="0.50003" stroke="#5271FF" stroke-opacity="0.2"/>
<line x1="4.61469e-08" y1="114.071" x2="1440" y2="114.071" stroke="#5271FF" stroke-opacity="0.2"/>
<line x1="4.61469e-08" y1="227.643" x2="1440" y2="227.643" stroke="#5271FF" stroke-opacity="0.2"/>
<line x1="4.61469e-08" y1="341.214" x2="1440" y2="341.214" stroke="#5271FF" stroke-opacity="0.2"/>
<line x1="4.61469e-08" y1="454.786" x2="1440" y2="454.786" stroke="#5271FF" stroke-opacity="0.2"/>
<line x1="4.61469e-08" y1="568.357" x2="1440" y2="568.357" stroke="#5271FF" stroke-opacity="0.2"/>
<line x1="4.61469e-08" y1="681.929" x2="1440" y2="681.929" stroke="#5271FF" stroke-opacity="0.2"/>
<line x1="4.19167e-08" y1="795.5" x2="1440" y2="795.5" stroke="#5271FF" stroke-opacity="0.2"/>
</g>
<defs>
<filter id="filter0_n_169_1924" x="0" y="0" width="1440" height="796" filterUnits="userSpaceOnUse" color-interpolation-filters="sRGB">
<feFlood flood-opacity="0" result="BackgroundImageFix"/>
<feBlend mode="normal" in="SourceGraphic" in2="BackgroundImageFix" result="shape"/>
<feTurbulence type="fractalNoise" baseFrequency="0.28571429848670959 0.28571429848670959" stitchTiles="stitch" numOctaves="3" result="noise" seed="8931" />
<feColorMatrix in="noise" type="luminanceToAlpha" result="alphaNoise" />
<feComponentTransfer in="alphaNoise" result="coloredNoise1">
<feFuncA type="discrete" tableValues="0 0 0 0 0 0 0 0 0 0 0 0 0 0 0 0 0 0 0 0 0 0 1 1 1 1 1 1 0 0 0 0 0 0 0 0 0 0 0 0 0 0 0 0 0 0 0 0 0 0 0 0 0 0 0 0 0 0 0 0 0 0 0 0 0 0 0 0 0 0 0 0 0 0 0 0 0 0 0 0 0 0 0 0 0 0 0 0 0 0 0 0 0 0 0 0 0 0 0 0 "/>
</feComponentTransfer>
<feComposite operator="in" in2="shape" in="coloredNoise1" result="noise1Clipped" />
<feFlood flood-color="rgba(17, 24, 39, 0.2)" result="color1Flood" />
<feComposite operator="in" in2="noise1Clipped" in="color1Flood" result="color1" />
<feMerge result="effect1_noise_169_1924">
<feMergeNode in="shape" />
<feMergeNode in="color1" />
</feMerge>
</filter>
<clipPath id="clip0_169_1924">
<rect width="1440" height="796" fill="white"/>
</clipPath>
<clipPath id="clip1_169_1924">
<rect width="1440" height="794" fill="white" transform="translate(0 2)"/>
</clipPath>
</defs>
</svg>
